<svg width="512" height="512" xmlns="http://www.w3.org/2000/svg" version="1.1" xml:space="preserve">
 <g>
  <title>Layer 1</title>
  <g id="svg_1">
   <circle class="st0" cx="341.3" cy="256" r="85.3" fill-rule="evenodd" clip-rule="evenodd" fill="#19BCFE" id="svg_2"/>
   <path class="st1" d="m170.7,512c47.1,0 85.3,-38.2 85.3,-85.3c0,-12.9 0,-41.3 0,-85.3c-38.3,0 -66.8,0 -85.3,0c-47.1,0 -85.3,38.2 -85.3,85.3s38.1,85.3 85.3,85.3z" fill-rule="evenodd" clip-rule="evenodd" fill="#09CF83" id="svg_3"/>
   <path class="st2" d="m170.7,341.3c15.7,0 44.2,0 85.3,0l0,-170.6c-41.2,0 -69.6,0 -85.3,0c-47.1,0 -85.3,38.2 -85.3,85.3s38.1,85.3 85.3,85.3z" fill-rule="evenodd" clip-rule="evenodd" fill="#A259FF" id="svg_4"/>
   <path class="st3" d="m170.7,170.7c15.7,0 44.2,0 85.3,0l0,-170.7c-41.2,0 -69.6,0 -85.3,0c-47.1,0 -85.3,38.2 -85.3,85.3s38.1,85.4 85.3,85.4z" fill-rule="evenodd" clip-rule="evenodd" fill="#F24E1E" id="svg_5"/>
   <path class="st4" d="m341.3,170.7l-85.3,0l0,-170.7l85.3,0c47.1,0 85.3,38.2 85.3,85.3s-38.1,85.4 -85.3,85.4z" fill-rule="evenodd" clip-rule="evenodd" fill="#FF7262" id="svg_6"/>
  </g>
  <path fill="#fff" stroke="#000" opacity="NaN" d="m328,375" id="svg_8"/>
  <path stroke-width="0" stroke="#000" id="svg_9" d="m421.65484,401.30732c-0.02331,-13.63393 -10.44413,-24.68062 -23.30697,-24.69915l0,-0.00617l-71.43623,0c-2.94324,-10.0155 -11.72051,-17.3388 -22.17629,-17.35732l-16.75607,0c-12.86866,0.01235 -23.29531,11.06522 -23.31862,24.69915l0,87.60787c0.02331,13.62158 10.44996,24.66827 23.31862,24.69297l110.37442,0c12.85118,-0.0247 23.28365,-11.07139 23.30697,-24.69297l0,-70.24437l-0.00583,0zm-133.67556,-29.71925l16.75607,0c6.0963,-0.0247 11.17266,5.14977 11.55732,11.5839l0.33804,5.78577l81.723,0c6.37022,0.01235 11.63891,5.59436 11.65057,12.34957l0,3.05652c-3.44447,-2.1303 -7.39016,-3.43936 -11.6564,-3.44553l-110.37442,0c-4.26624,0.00617 -8.21776,1.3214 -11.6564,3.45171l0,-20.43237c0.01748,-6.75522 5.28618,-12.33722 11.66223,-12.34957zm110.36859,112.30702l-110.36859,0c-6.37022,-0.01235 -11.63891,-5.60671 -11.66223,-12.34957l0,-45.92806l0.00583,0c0.01166,-6.76139 5.28035,-12.3434 11.6564,-12.35575l110.37442,0c6.37022,0.01235 11.60394,5.56348 11.6564,12.294l0,45.98363c-0.02331,6.76139 -5.292,12.3434 -11.66223,12.35575z" fill="#007f00"/>
 </g>

</svg>